<?xml version="1.0" encoding="utf-8"?>
<!-- Generator: Adobe Illustrator 17.1.0, SVG Export Plug-In . SVG Version: 6.00 Build 0)  -->
<!DOCTYPE svg PUBLIC "-//W3C//DTD SVG 1.1//EN" "http://www.w3.org/Graphics/SVG/1.1/DTD/svg11.dtd">
<svg version="1.1" id="spaCy-space" xmlns="http://www.w3.org/2000/svg" xmlns:xlink="http://www.w3.org/1999/xlink" x="0px" y="0px"
	 viewBox="100 99 600 96" enable-background="new 100 99 600 96" xml:space="preserve">
<path fill="#09A3D5" d="M140.9,138.3c-6.1-0.7-6.5-8.9-14.3-8.2c-3.8,0-7.3,1.6-7.3,5c0,5.2,8.1,5.7,12.9,7
	c8.3,2.5,16.3,4.2,16.3,13.3c0,11.4-9,15.4-20.8,15.4c-9.9,0-20-3.5-20-12.6c0-2.5,2.4-4.5,4.8-4.5c3,0,4,1.3,5,3.3
	c2.3,4.1,4.9,6.2,11.3,6.2c4.1,0,8.2-1.5,8.2-5c0-5-5.1-6.1-10.4-7.3c-9.3-2.6-17.4-4-18.3-14.3c-1-17.7,35.8-18.3,37.9-2.8
	C146.2,136.6,143.6,138.3,140.9,138.3z"/>
<path fill="#09A3D5" d="M184.7,122.8c12.9,0,20.3,10.8,20.3,24.2c0,13.4-7.1,24.2-20.3,24.2c-7.3,0-11.9-3.1-15.1-7.9v17.7
	c0,5.3-1.7,7.9-5.6,7.9c-4.7,0-5.6-3-5.6-7.9v-51.4c0-4.2,1.8-6.8,5.6-6.8c3.6,0,5.6,2.8,5.6,6.8v1.4
	C173.2,126.4,177.4,122.8,184.7,122.8L184.7,122.8z M181.6,161.9c7.6,0,11-7,11-15.1c0-8-3.4-15.1-11-15.1
	c-7.9,0-11.5,6.5-11.5,15.1C170.1,155.2,173.8,161.9,181.6,161.9z"/>
<path fill="#09A3D5" d="M213.7,135.4c0-9.3,10.7-12.6,21-12.6c14.6,0,20.6,4.2,20.6,18.3v13.5c0,3.2,2,9.6,2,11.5
	c0,2.9-2.7,4.8-5.6,4.8c-3.2,0-5.6-3.8-7.3-6.5c-4.7,3.8-9.7,6.5-17.4,6.5c-8.5,0-15.1-5-15.1-13.3c0-7.3,5.2-11.5,11.5-12.9
	c0,0,20.3-4.8,20.3-4.8c0-6.2-2.2-9-8.7-9c-5.8,0-8.7,1.6-11,5c-1.8,2.6-1.6,4.2-5,4.2C216.2,140.1,213.7,138.3,213.7,135.4z
	 M231,163.3c8.9,0,12.6-4.7,12.6-14v-2c-2.4,0.8-12,3.2-14.6,3.6c-2.8,0.5-5.6,2.6-5.6,5.9C223.5,160.4,227.2,163.3,231,163.3z"/>
<path fill="#09A3D5" d="M296.3,105.2c12.5,0,26.1,7.5,26.1,19.4c0,3.1-2.3,5.6-5.3,5.6c-4.1,0-4.7-2.2-6.5-5.3
	c-3-5.5-6.6-9.2-14.3-9.2c-12-0.1-17.4,10.2-17.4,23c0,12.9,4.5,22.2,16.9,22.2c8.2,0,12.8-4.8,15.1-11c0.9-2.8,2.7-5.6,6.2-5.6
	c2.8,0,5.6,2.8,5.6,5.9c0,12.6-12.9,21.4-26.1,21.4c-14.5,0-22.7-6.1-27.2-16.3c-2.2-4.9-3.6-9.9-3.6-16.9
	C265.6,118.7,277,105.2,296.3,105.2L296.3,105.2z"/>
<path fill="#09A3D5" d="M367.9,122.8c3.2,0,5,2.1,5,5.3c0,1.3-1,3.9-1.4,5.3L356.1,174c-3.4,8.8-6,14.9-17.7,14.9
	c-5.5,0-10.4-0.5-10.4-5.3c0-2.8,2.1-4.2,5-4.2c0.5,0,1.4,0.3,2,0.3c0.9,0,1.4,0.3,2,0.3c5.9,0,6.7-6,8.7-10.1L331,132.9
	c-0.9-2-1.4-3.3-1.4-4.5c0-3.2,2.5-5.6,5.9-5.6c3.8,0,5.3,3,6.2,6.2l9.8,29.2l9.8-27C362.8,127,362.9,122.8,367.9,122.8L367.9,122.8
	z"/>
<path fill="#09A3D5" d="M425.2,141.6c0,3.2-2.6,5.7-5.7,5.7h-30c-3.2,0-5.7-2.6-5.7-5.7c0-3.1,2.6-5.7,5.7-5.7h30
	C422.6,135.8,425.2,138.4,425.2,141.6z"/>
<path fill="#09A3D5" d="M470.9,138.3c-6.1-0.7-6.5-8.9-14.3-8.2c-3.8,0-7.3,1.6-7.3,5c0,5.2,8.1,5.7,12.9,7
	c8.3,2.5,16.3,4.2,16.3,13.3c0,11.4-9,15.4-20.8,15.4c-9.9,0-20-3.5-20-12.6c0-2.5,2.4-4.5,4.8-4.5c3,0,4,1.3,5,3.3
	c2.3,4.1,4.9,6.2,11.3,6.2c4.1,0,8.2-1.5,8.2-5c0-5-5.1-6.1-10.4-7.3c-9.3-2.6-17.4-4-18.3-14.3c-1-17.7,35.8-18.3,37.9-2.8
	C476.2,136.6,473.6,138.3,470.9,138.3z"/>
<path fill="#09A3D5" d="M514.7,122.8c12.9,0,20.3,10.8,20.3,24.2c0,13.4-7.1,24.2-20.3,24.2c-7.3,0-11.9-3.1-15.1-7.9v17.7
	c0,5.3-1.7,7.9-5.6,7.9c-4.7,0-5.6-3-5.6-7.9v-51.4c0-4.2,1.8-6.8,5.6-6.8c3.6,0,5.6,2.8,5.6,6.8v1.4
	C503.2,126.4,507.4,122.8,514.7,122.8L514.7,122.8z M511.6,161.9c7.6,0,11-7,11-15.1c0-8-3.4-15.1-11-15.1
	c-7.9,0-11.5,6.5-11.5,15.1C500.1,155.2,503.8,161.9,511.6,161.9z"/>
<path fill="#09A3D5" d="M543.7,135.4c0-9.3,10.7-12.6,21-12.6c14.6,0,20.6,4.2,20.6,18.3v13.5c0,3.2,2,9.6,2,11.5
	c0,2.9-2.7,4.8-5.6,4.8c-3.2,0-5.6-3.8-7.3-6.5c-4.7,3.8-9.7,6.5-17.4,6.5c-8.5,0-15.1-5-15.1-13.3c0-7.3,5.2-11.5,11.5-12.9
	c0,0,20.3-4.8,20.3-4.8c0-6.2-2.2-9-8.7-9c-5.8,0-8.7,1.6-11,5c-1.8,2.6-1.6,4.2-5,4.2C546.2,140.1,543.7,138.3,543.7,135.4z
	 M561,163.3c8.9,0,12.6-4.7,12.6-14v-2c-2.4,0.8-12,3.2-14.6,3.6c-2.8,0.5-5.6,2.6-5.6,5.9C553.5,160.4,557.2,163.3,561,163.3z"/>
<path fill="#09A3D5" d="M618.4,170.1c-4.2,0.3-8.1-0.8-11.8-2.7c-3.3-1.6-5.8-4.2-7.7-7.4c-2.9-4.9-3.8-10.2-3.2-15.8
	c0.6-5,2-9.6,5.3-13.6c2.1-2.4,4.5-4.1,7.4-5.4c5.2-2.4,10.6-2.8,16.1-1.7c4.3,0.8,8.3,2.7,11.5,5.8c1.9,1.8,3.2,4,3.4,6.7
	c0.2,2.1-1.2,4.2-3.2,4.9c-1.8,0.7-4.2,0-5.6-1.6c-1.3-1.5-2.4-3.1-3.7-4.6c-2.7-3-7.3-4.3-11.4-2.7c-5.2,2-7.2,6.3-7.8,11.4
	c-0.5,3.8-0.3,7.6,1.3,11.2c1.2,2.6,2.9,4.8,5.6,6c1.6,0.7,3.2,1,4.9,1c4.6,0,7.5-2.4,9.8-6.1c0.9-1.4,1.9-2.7,3.1-3.8
	c1.9-1.8,4.9-1.2,6.7,1.2c1.9,2.7,0.9,5.1-0.3,7.5c-1.6,3.2-4.4,5.5-7.6,7c-3.5,1.7-7.4,2.6-11.3,2.6
	C619.4,170.1,618.9,170.1,618.4,170.1z"/>
<path fill="#09A3D5" d="M673.5,149.6c-4,0-8,0-12,0c-1.8,0-2.2,0.5-1.6,2.1c0.6,1.9,1.2,3.8,2.3,5.4c0.9,1.4,2.4,2.4,3.9,3.3
	c2.5,1.5,5.4,1.5,8.1,1c2.2-0.4,4.2-1.5,6-2.8c1.6-1.2,3.1-2.5,4.7-3.7c2.2-1.7,6.2-0.5,6.6,2.1c0.2,1.4-0.4,3.1-1.1,4.3
	c-1.3,2.3-3.2,3.9-5.5,5.3c-5.9,3.6-12.3,4-18.9,3c-4-0.6-7.7-2.1-10.8-4.7c-2.6-2.2-4.5-4.9-5.7-8.1c-1.8-4.6-2.4-9.2-1.7-14
	c0.5-3.6,1.4-7.1,3.4-10.2c1.7-2.6,3.7-4.7,6.4-6.3c2.6-1.6,5.4-2.5,8.2-3c3.7-0.7,7.5-0.8,11.1,0.4c1.4,0.5,2.8,0.9,4.2,1.5
	c3.9,1.7,6.7,4.5,8.8,8.2c1.8,3.3,2.5,6.7,2.3,10.3c-0.1,2.6-1.1,3.8-3.4,4.8c-1.9,0.8-3.8,1-5.8,1
	C679.9,149.6,676.7,149.6,673.5,149.6C673.5,149.6,673.5,149.6,673.5,149.6z M670.4,142.3c2.6,0,5.2,0,7.7,0c2.9,0,3.6-0.1,2.3-3.1
	c0,0,0-0.1,0-0.1c-0.8-3.7-3.1-6.1-6.7-7.2c-3.6-1.2-8.2-0.3-10.9,2.7c-1.4,1.5-2,3.3-2.6,5.1c-0.8,2.2-0.6,2.6,1.8,2.6
	C664.8,142.3,667.6,142.3,670.4,142.3z"/>
</svg>
